<?xml version="1.0" encoding="utf-8"?>
<!-- Generator: Adobe Illustrator 21.1.0, SVG Export Plug-In . SVG Version: 6.00 Build 0)  -->
<svg version="1.1" id="Layer_1" xmlns="http://www.w3.org/2000/svg" xmlns:xlink="http://www.w3.org/1999/xlink" x="0px" y="0px"
	 viewBox="0 0 55.1 55.1" style="enable-background:new 0 0 55.1 55.1;" xml:space="preserve">
<style type="text/css">
	.st0{fill:#767576;}
	.st1{opacity:0.5;fill:#4F4E4E;enable-background:new    ;}
	.st2{fill:#FFFFFF;}
</style>
<g>
	<path class="st0" d="M54.1,1v53.1H1V1H54.1 M55.1,0h-1H1H0v1v53.1v1h1h53.1h1v-1V1V0L55.1,0z"/>
	<rect x="1" y="1" class="st1" width="53.1" height="53.1"/>
</g>
<g>
	<path class="st2" d="M31.2,21.3c0.1,0.1,0.2,0.2,0.1,0.2l-5.9,20.7c-0.3,1.1-0.4,1.8-0.4,2c0,0.3,0.1,0.5,0.2,0.8
		c0.1,0.2,0.3,0.3,0.7,0.3c0.7,0,1.5-0.6,2.6-1.7c0.6-0.7,1.4-1.6,2.4-2.9l0.8,0.6l-0.3,0.4c-1.5,2-2.7,3.5-3.6,4.4
		c-1.5,1.4-2.9,2.1-4.4,2.1c-0.8,0-1.5-0.3-2.1-1s-0.8-1.5-0.8-2.5c0-0.6,0-1.1,0.1-1.5s0.2-1,0.4-1.8l4.1-14.9
		c0.1-0.2,0.1-0.4,0.1-0.6s0.1-0.4,0.1-0.6c0-0.7-0.3-1.1-0.8-1.3c-0.5-0.2-1.5-0.2-3-0.2v-1c1.6-0.2,2.7-0.3,3.4-0.5
		c0.7-0.1,1.4-0.2,2.1-0.3c0.9-0.2,1.8-0.3,2.6-0.5C30.6,21.3,31.1,21.2,31.2,21.3z M28.5,14c-0.6-0.6-0.8-1.4-0.8-2.2
		c0-0.9,0.3-1.6,0.8-2.3c0.6-0.6,1.2-0.9,2-0.9s1.5,0.3,2,0.9s0.9,1.4,0.9,2.3s-0.3,1.6-0.9,2.3s-1.3,0.9-2,0.9
		C29.7,14.9,29,14.6,28.5,14z"/>
</g>
</svg>
