<?xml version="1.0" encoding="utf-8"?>
<!-- Generator: Adobe Illustrator 21.1.0, SVG Export Plug-In . SVG Version: 6.00 Build 0)  -->
<svg version="1.1" id="Layer_1" xmlns="http://www.w3.org/2000/svg" xmlns:xlink="http://www.w3.org/1999/xlink" x="0px" y="0px"
	 viewBox="0 0 27 27" style="enable-background:new 0 0 27 27;" xml:space="preserve">
<style type="text/css">
	.st0{opacity:0.5;fill:#4F4E4E;enable-background:new    ;}
	.st1{fill:#FFFFFF;}
</style>
<g>
	<rect class="st0" width="27" height="27"/>
</g>
<g>
	<path class="st1" d="M9.6,21c0.1-0.3,0.2-0.7,0.3-1.2l1.8-6.5c0-0.1,0-0.2,0-0.2c0-0.1,0-0.1,0-0.2c0-0.4-0.1-0.6-0.4-0.7
		C11.1,12.1,10.6,12,10,12v-0.8c0.5,0,1.3-0.1,2.4-0.2c1-0.1,1.8-0.2,2.2-0.3l1.2-0.2l-2.3,8.3c-0.2,0.7-0.3,1.2-0.4,1.5
		c-0.2,0.7-0.3,1.2-0.3,1.4s0,0.3,0.1,0.4s0.2,0.1,0.3,0.1c0.3,0,0.7-0.3,1.1-0.8s0.8-1,1.2-1.6l0.6,0.4c-0.9,1.4-1.7,2.3-2.2,2.8
		c-0.8,0.8-1.7,1.2-2.6,1.2c-0.5,0-1-0.2-1.4-0.5s-0.6-0.8-0.6-1.5C9.4,21.9,9.5,21.5,9.6,21z M16.4,4.5C16.8,4.9,17,5.3,17,5.9
		s-0.2,1-0.6,1.4S15.6,7.9,15,7.9s-1-0.2-1.4-0.6S13,6.5,13,5.9s0.2-1,0.6-1.4s0.8-0.6,1.4-0.6S16.1,4.1,16.4,4.5z"/>
</g>
</svg>
