<?xml version="1.0" encoding="utf-8"?>
<!-- Generator: Adobe Illustrator 21.1.0, SVG Export Plug-In . SVG Version: 6.00 Build 0)  -->
<svg version="1.1" id="Layer_1" xmlns="http://www.w3.org/2000/svg" xmlns:xlink="http://www.w3.org/1999/xlink" x="0px" y="0px"
	 viewBox="0 0 27 27" style="enable-background:new 0 0 27 27;" xml:space="preserve">
<style type="text/css">
	.st0{opacity:0.5;fill:#4F4E4E;enable-background:new    ;}
	.st1{fill:#FFFFFF;}
</style>
<g>
	<rect class="st0" width="27" height="27"/>
</g>
<path class="st1" d="M22.6,21.1c0,0-0.2-0.5-0.8-1.3c-0.6-0.8-0.3-1.4-0.3-2s0.1-3.2-0.1-3.8s-0.7-1.9-0.7-1.9l-2.2-5
	c-0.3-0.6-0.9-0.8-1.5-0.6c-0.6,0.3-0.8,0.9-0.6,1.5l1,2.3c0.1,0.3-0.5,0.6-0.6,0.2l0,0l-1.3-3.2c-0.2-0.6-0.9-0.9-1.5-0.6
	c-0.6,0.2-0.9,0.9-0.6,1.5l1.3,3.4c0.1,0.3-0.4,0.4-0.5,0.1l0,0l-1.8-4.5c-0.2-0.6-0.9-0.9-1.5-0.6c-0.6,0.2-0.9,0.9-0.6,1.5
	l1.8,4.5c0.1,0.2-0.2,0.4-0.3,0.1l0,0L7.5,3.9c-0.3-0.7-1.2-1-1.9-0.7c-0.7,0.3-1,1.2-0.7,1.9l4.9,10.1C9.7,15.1,9.5,15,9.5,15
	c-0.2-0.2-1.6-0.9-2.3-1.2c-0.8-0.2-1.7-0.3-2.6,0.2s-0.7,1.6-0.7,1.6s1.3,0,1.9,0.3s1.7,1.2,2.3,1.9c0.6,0.7,1.3,1.2,1.7,1.3
	c0.4,0.1,1.4,0.6,2.9,1.4s2.2,2.1,2.6,3.1s0.9,1.1,1.9,1s2.9-0.4,4.6-1.5C23.3,22.1,22.6,21.1,22.6,21.1z"/>
</svg>
