<?xml version="1.0" encoding="utf-8"?>
<!-- Generator: Adobe Illustrator 21.1.0, SVG Export Plug-In . SVG Version: 6.00 Build 0)  -->
<svg version="1.1" id="Layer_1" xmlns="http://www.w3.org/2000/svg" xmlns:xlink="http://www.w3.org/1999/xlink" x="0px" y="0px"
	 viewBox="0 0 34.6 432.1" style="enable-background:new 0 0 34.6 432.1;" xml:space="preserve">
<style type="text/css">
	.st0{opacity:0.5;fill:#FFFFFF;enable-background:new    ;}
	.st1{fill:none;stroke:#767576;stroke-miterlimit:10;}
	.st2{fill:#4F4E4E;}
</style>
<g>
	<polygon class="st0" points="0.5,0.5 34.1,0.5 34.1,144.2 0.5,110.2 	"/>
</g>
<g>
	<polyline class="st1" points="34.1,0.5 0.5,0.5 0.5,110.2 34.1,144.2 34.1,432.1 	"/>
</g>
<g>
	<g>
		<path class="st2" d="M26,78.5H15.7l7.7,4v1.6l-7.7,4H26v3H10.4v-3.3l8.9-4.6l-8.9-4.7v-3.2H26V78.5z"/>
		<path class="st2" d="M23.4,60.3h2.7v10.8H10.5V60.5h2.7v7.6H17v-6.6h2.5v6.6h4.1v-7.8H23.4z"/>
		<path class="st2" d="M16,53.8h10v3H10.4v-2.4l10.3-8.1H10.5v-3h15.6v2.5L16,53.8z"/>
		<path class="st2" d="M23.5,32.3c0-0.7-0.1-1.3-0.4-1.8s-0.7-0.9-1.1-1.2c-0.5-0.3-1-0.5-1.6-0.6s-1.2-0.2-1.9-0.2h-8v-3h8
			c1.1,0,2.1,0.1,3,0.4c0.9,0.3,1.8,0.7,2.5,1.2c0.7,0.6,1.3,1.3,1.7,2.1c0.4,0.9,0.6,1.9,0.6,3.1c0,1.2-0.2,2.3-0.6,3.2
			s-1,1.6-1.7,2.1s-1.5,0.9-2.5,1.2c-0.9,0.2-1.9,0.4-2.9,0.4h-8v-3h8c0.7,0,1.3-0.1,1.9-0.2s1.1-0.3,1.6-0.6s0.8-0.7,1.1-1.2
			C23.3,33.6,23.5,33,23.5,32.3z"/>
	</g>
</g>
</svg>
